HIERARCHY
ROOT f_avg_root
{
	OFFSET 0.000000 0.000000 0.000000
	CHANNELS 6 Xposition Yposition Zposition Xrotation Yrotation Zrotation
	JOINT f_avg_Pelvis
	{
		OFFSET -0.087631 90.931465 2.782112
		CHANNELS 6 Xposition Yposition Zposition Xrotation Yrotation Zrotation
		JOINT f_avg_L_Hip
		{
			OFFSET 7.136119 -8.958382 -0.804619
			CHANNELS 6 Xposition Yposition Zposition Xrotation Yrotation Zrotation
			JOINT f_avg_L_Knee
			{
				OFFSET 3.066892 -36.420944 -0.668891
				CHANNELS 6 Xposition Yposition Zposition Xrotation Yrotation Zrotation
				JOINT f_avg_L_Ankle
				{
					OFFSET -1.155390 -38.334850 -4.350160
					CHANNELS 6 Xposition Yposition Zposition Xrotation Yrotation Zrotation
					JOINT f_avg_L_Foot
					{
						OFFSET 2.333768 -5.464478 11.437012
						CHANNELS 6 Xposition Yposition Zposition Xrotation Yrotation Zrotation
						End Site
						{
							OFFSET 0.000000 12.888453 0.000000
						}
					}
				}
			}
		}
		JOINT f_avg_R_Hip
		{
			OFFSET -6.901202 -8.896049 -0.479568
			CHANNELS 6 Xposition Yposition Zposition Xrotation Yrotation Zrotation
			JOINT f_avg_R_Knee
			{
				OFFSET -3.615239 -37.065048 -0.918532
				CHANNELS 6 Xposition Yposition Zposition Xrotation Yrotation Zrotation
				JOINT f_avg_R_Ankle
				{
					OFFSET 1.402864 -38.363777 -4.189160
					CHANNELS 6 Xposition Yposition Zposition Xrotation Yrotation Zrotation
					JOINT f_avg_R_Foot
					{
						OFFSET -2.204322 -4.640959 11.789971
						CHANNELS 6 Xposition Yposition Zposition Xrotation Yrotation Zrotation
						End Site
						{
							OFFSET 0.000000 12.860830 0.000000
						}
					}
				}
			}
		}
		JOINT f_avg_Spine1
		{
			OFFSET -0.250821 10.325684 -2.218514
			CHANNELS 6 Xposition Yposition Zposition Xrotation Yrotation Zrotation
			JOINT f_avg_Spine2
			{
				OFFSET 0.358096 12.765762 -0.171301
				CHANNELS 6 Xposition Yposition Zposition Xrotation Yrotation Zrotation
				JOINT f_avg_Spine3
				{
					OFFSET 0.202718 4.907227 2.786721
					CHANNELS 6 Xposition Yposition Zposition Xrotation Yrotation Zrotation
					JOINT f_avg_Neck
					{
						OFFSET -0.196263 20.824318 -4.976548
						CHANNELS 6 Xposition Yposition Zposition Xrotation Yrotation Zrotation
						JOINT f_avg_Head
						{
							OFFSET 0.351716 6.232193 5.020525
							CHANNELS 6 Xposition Yposition Zposition Xrotation Yrotation Zrotation
							End Site
							{
								OFFSET 0.000000 8.010590 0.000000
							}
						}
					}
					JOINT f_avg_L_Collar
					{
						OFFSET 7.529828 11.778038 -3.687482
						CHANNELS 6 Xposition Yposition Zposition Xrotation Yrotation Zrotation
						JOINT f_avg_L_Shoulder
						{
							OFFSET 8.531712 3.173889 -0.729283
							CHANNELS 6 Xposition Yposition Zposition Xrotation Yrotation Zrotation
							JOINT f_avg_L_Elbow
							{
								OFFSET 25.124733 -1.196655 -2.751844
								CHANNELS 6 Xposition Yposition Zposition Xrotation Yrotation Zrotation
								JOINT f_avg_L_Wrist
								{
									OFFSET 23.801907 0.900681 0.004375
									CHANNELS 6 Xposition Yposition Zposition Xrotation Yrotation Zrotation
									JOINT f_avg_L_Hand
									{
										OFFSET 7.966774 -0.968246 -1.320559
										CHANNELS 6 Xposition Yposition Zposition Xrotation Yrotation Zrotation
										End Site
										{
											OFFSET 0.000000 8.133316 0.000000
										}
									}
								}
							}
						}
					}
					JOINT f_avg_R_Collar
					{
						OFFSET -7.703282 11.560616 -4.181066
						CHANNELS 6 Xposition Yposition Zposition Xrotation Yrotation Zrotation
						JOINT f_avg_R_Shoulder
						{
							OFFSET -8.920284 3.278503 -0.980219
							CHANNELS 6 Xposition Yposition Zposition Xrotation Yrotation Zrotation
							JOINT f_avg_R_Elbow
							{
								OFFSET -24.598970 -1.315262 -2.016171
								CHANNELS 6 Xposition Yposition Zposition Xrotation Yrotation Zrotation
								JOINT f_avg_R_Wrist
								{
									OFFSET -24.517677 0.862183 -0.353151
									CHANNELS 6 Xposition Yposition Zposition Xrotation Yrotation Zrotation
									JOINT f_avg_R_Hand
									{
										OFFSET -8.040016 -0.724777 -1.041933
										CHANNELS 6 Xposition Yposition Zposition Xrotation Yrotation Zrotation
										End Site
										{
											OFFSET 0.000000 8.139587 0.000000
										}
									}
								}
							}
						}
					}
				}
			}
		}
	}
}
MOTION
Frames: 5
Frame Time: 0.041667
0.000000 0.000000 0.000000 -0.000003 -0.000003 -90.000207 0.000004 296.596710 0.000000 90.643468 4.571536 87.090963 7.136118 -8.958366 -0.804642 -8.657803 3.366912 16.811384 3.066892 -36.420944 -0.668831 25.661169 -14.769268 2.914936 -1.155383 -38.334850 -4.350183 1.443881 16.238881 -19.134502 2.333770 -5.464483 11.436955 -4.537377 -6.631587 22.253120 -6.901203 -8.896036 -0.479638 -9.467094 -0.458855 -14.520951 -3.615237 -37.065060 -0.918541 22.123565 18.332293 -1.392699 1.402871 -38.363770 -4.189183 2.802176 -16.641978 18.544402 -2.204324 -4.640969 11.790013 -4.733462 9.502790 -22.108084 -0.250821 10.325699 -2.218525 5.483552 -0.073839 0.241736 0.358095 12.765765 -0.171197 -6.607019 -2.968730 0.150543 0.202716 4.907218 2.786736 -2.418660 -0.393599 0.906311 -0.196262 20.824301 -4.976524 -7.776956 1.291848 -2.680980 0.351718 6.232227 5.020537 -7.215717 -1.320788 1.467157 7.529833 11.778041 -3.687412 -9.809869 -40.372640 22.139906 8.531719 3.173908 -0.729257 -28.820181 -44.931406 6.394406 25.124760 -1.196688 -2.751847 -27.114618 -21.652866 1.856589 23.801924 0.900728 0.004416 -0.992178 -6.283678 -0.904248 7.966799 -0.968276 -1.320582 -0.000001 0.000002 -0.000001 -7.703277 11.560613 -4.180999 -10.377826 38.796861 -21.500845 -8.920294 3.278483 -0.980224 -29.762870 42.050169 -7.483545 -24.598921 -1.315213 -2.016173 -27.867886 26.195444 -3.267109 -24.517672 0.862216 -0.353146 -3.759836 4.845728 -0.123953 -8.040024 -0.724779 -1.041970 -0.000005 -0.000001 0.000003 
0.000000 0.000000 0.000000 -0.000003 -0.000003 -90.000207 0.244138 296.275269 -1.367188 90.325570 4.475019 87.254103 7.136118 -8.958376 -0.804625 -10.029502 3.184384 16.720025 3.066896 -36.420956 -0.668876 25.207442 -14.531719 2.647299 -1.155386 -38.334854 -4.350214 1.764057 16.864972 -19.609301 2.333771 -5.464463 11.436998 -4.237280 -7.441819 22.834111 -6.901203 -8.896041 -0.479591 -8.492812 -1.053824 -14.358864 -3.615241 -37.065052 -0.918581 22.561503 19.025314 -1.423044 1.402868 -38.363758 -4.189145 2.858018 -17.070955 18.556304 -2.204323 -4.640983 11.789986 -4.887426 9.708600 -21.949233 -0.250821 10.325692 -2.218514 5.325689 0.285259 0.137324 0.358095 12.765749 -0.171220 -7.005643 -2.940251 0.156192 0.202716 4.907220 2.786726 -2.355362 -0.214104 0.913707 -0.196263 20.824297 -4.976498 -7.582002 1.520334 -2.750187 0.351714 6.232232 5.020486 -7.762393 -1.330353 1.358930 7.529828 11.778036 -3.687450 -9.827248 -39.452945 23.531340 8.531715 3.173891 -0.729290 -28.562681 -44.176554 9.331124 25.124731 -1.196700 -2.751842 -27.517874 -20.985034 1.845751 23.801912 0.900719 0.004392 -0.322956 -6.221800 -1.131586 7.966780 -0.968234 -1.320573 -0.000002 -0.000000 0.000001 -7.703282 11.560617 -4.181042 -10.498506 37.936189 -22.509030 -8.920285 3.278471 -0.980213 -29.904969 41.715418 -9.400665 -24.598984 -1.315265 -2.016171 -28.351787 25.266878 -3.359939 -24.517689 0.862164 -0.353170 -3.376591 4.696621 0.043683 -8.040026 -0.724812 -1.041942 -0.000003 -0.000001 0.000001 
0.000000 0.000000 0.000000 -0.000003 -0.000003 -90.000207 -0.244141 295.953766 -3.027343 89.718052 4.717008 87.439276 7.136117 -8.958383 -0.804591 -10.849385 2.821211 17.135772 3.066896 -36.420944 -0.668883 26.720456 -14.596114 2.898553 -1.155376 -38.334816 -4.350161 1.799305 16.901728 -19.798999 2.333769 -5.464492 11.437002 -4.365733 -7.722073 22.888256 -6.901203 -8.896042 -0.479583 -9.131095 -1.300525 -14.101403 -3.615241 -37.065052 -0.918561 21.439481 18.594442 -0.786120 1.402857 -38.363770 -4.189168 3.139623 -17.126426 18.446726 -2.204326 -4.640941 11.790030 -4.917247 9.558065 -21.937688 -0.250821 10.325683 -2.218491 5.564045 0.438013 -0.051963 0.358096 12.765765 -0.171291 -7.098563 -2.726466 -0.217627 0.202716 4.907219 2.786719 -2.305805 -0.087574 0.696432 -0.196263 20.824301 -4.976528 -7.431649 1.507122 -3.061072 0.351714 6.232232 5.020496 -8.302417 -1.137978 1.439589 7.529830 11.778036 -3.687439 -9.744487 -39.259111 23.918324 8.531696 3.173906 -0.729286 -28.804434 -43.983119 9.777267 25.124729 -1.196668 -2.751842 -27.825472 -20.960959 2.097336 23.801928 0.900715 0.004383 -0.202529 -6.170619 -1.060173 7.966787 -0.968231 -1.320559 -0.000003 0.000001 0.000001 -7.703282 11.560616 -4.181042 -10.334043 37.985028 -23.144446 -8.920310 3.278490 -0.980222 -29.804948 41.617002 -9.837159 -24.598951 -1.315220 -2.016169 -27.728840 24.712024 -3.063779 -24.517677 0.862197 -0.353169 -3.024937 4.684857 0.086692 -8.040014 -0.724809 -1.041953 0.000002 -0.000002 -0.000001 
0.000000 0.000000 0.000000 -0.000003 -0.000003 -90.000207 -0.537109 298.107758 -4.394531 89.359051 6.184772 87.694534 7.136119 -8.958375 -0.804623 -11.506477 2.451445 17.625704 3.066890 -36.420952 -0.668796 25.608548 -14.726815 2.851088 -1.155385 -38.334827 -4.350152 2.024581 16.792527 -20.364568 2.333769 -5.464480 11.436982 -4.591795 -8.021886 23.285462 -6.901204 -8.896041 -0.479559 -9.252301 -2.068919 -13.998439 -3.615239 -37.065052 -0.918583 19.926705 17.746317 -0.097622 1.402884 -38.363789 -4.189174 3.035158 -17.227754 18.435051 -2.204327 -4.640950 11.790064 -4.738700 8.973413 -21.983848 -0.250822 10.325702 -2.218480 5.145410 0.627181 -0.216167 0.358095 12.765766 -0.171249 -7.275562 -2.151100 -0.783365 0.202717 4.907225 2.786733 -2.032736 0.274850 0.389593 -0.196263 20.824324 -4.976496 -7.245425 0.811255 -3.338364 0.351714 6.232232 5.020528 -8.774180 -1.051162 1.198316 7.529830 11.778054 -3.687365 -10.015650 -37.355042 24.471793 8.531734 3.173905 -0.729289 -28.176976 -42.522897 11.214230 25.124758 -1.196670 -2.751840 -27.599500 -25.260929 1.291061 23.801910 0.900722 0.004412 -0.485043 -6.589418 -0.626145 7.966770 -0.968232 -1.320547 0.000002 -0.000001 0.000002 -7.703284 11.560616 -4.180989 -10.332855 36.792819 -24.393471 -8.920282 3.278488 -0.980233 -30.069669 41.435848 -11.458991 -24.598984 -1.315224 -2.016175 -28.192320 26.689874 -2.813188 -24.517677 0.862212 -0.353142 -2.377170 4.948078 -0.458546 -8.040012 -0.724795 -1.041932 -0.000003 -0.000001 0.000002 
0.000000 0.000000 0.000000 -0.000003 -0.000003 -90.000207 -2.001950 297.458313 -7.714845 90.117557 5.730063 87.810633 7.136118 -8.958385 -0.804659 -8.875290 2.982542 18.863468 3.066899 -36.420940 -0.668889 25.408200 -16.749485 3.243180 -1.155374 -38.334820 -4.350170 1.826486 16.784667 -20.264218 2.333771 -5.464502 11.436958 -5.196085 -8.236769 23.365075 -6.901204 -8.896045 -0.479648 -11.696851 -1.585438 -13.442346 -3.615239 -37.065060 -0.918467 25.067945 16.251472 0.398574 1.402865 -38.363766 -4.189152 1.829130 -17.290817 17.377637 -2.204314 -4.640936 11.790060 -4.946052 8.813977 -21.553244 -0.250821 10.325695 -2.218560 5.430398 0.313814 -1.025417 0.358095 12.765764 -0.171262 -6.869331 -1.787400 -1.577054 0.202718 4.907225 2.786758 -1.736503 -0.114170 -0.211788 -0.196262 20.824316 -4.976528 -6.685949 0.686531 -3.313925 0.351713 6.232241 5.020508 -8.165399 -1.101243 1.171122 7.529830 11.778055 -3.687411 -9.842869 -37.176576 24.259208 8.531747 3.173906 -0.729283 -27.822847 -42.369644 12.176491 25.124743 -1.196669 -2.751842 -26.895664 -28.892629 0.193253 23.801916 0.900721 0.004405 -0.693346 -6.806906 -0.325712 7.966805 -0.968232 -1.320549 0.000002 0.000001 -0.000000 -7.703282 11.560614 -4.181008 -10.390821 36.732211 -24.479395 -8.920275 3.278484 -0.980244 -29.211220 40.477023 -11.997817 -24.598970 -1.315249 -2.016166 -25.964194 28.613495 -1.736662 -24.517691 0.862189 -0.353145 -2.428479 5.127137 -0.314962 -8.040026 -0.724795 -1.041938 0.000000 0.000001 0.000001 
